<?xml version="1.0" encoding="UTF-8" standalone="no"?>
<svg
   xmlns:dc="http://purl.org/dc/elements/1.1/"
   xmlns:cc="http://creativecommons.org/ns#"
   xmlns:rdf="http://www.w3.org/1999/02/22-rdf-syntax-ns#"
   xmlns:svg="http://www.w3.org/2000/svg"
   xmlns="http://www.w3.org/2000/svg"
   xmlns:sodipodi="http://sodipodi.sourceforge.net/DTD/sodipodi-0.dtd"
   xmlns:inkscape="http://www.inkscape.org/namespaces/inkscape"
   inkscape:version="1.0 (4035a4fb49, 2020-05-01)"
   sodipodi:docname="Home_Selected.svg"
   viewBox="0 0 1365.3333 1365.3333"
   height="1365.3333"
   width="1365.3333"
   xml:space="preserve"
   id="svg2083"
   version="1.1"><metadata
     id="metadata2089"><rdf:RDF><cc:Work
         rdf:about=""><dc:format>image/svg+xml</dc:format><dc:type
           rdf:resource="http://purl.org/dc/dcmitype/StillImage" /><dc:title></dc:title></cc:Work></rdf:RDF></metadata><defs
     id="defs2087"><clipPath
       id="clipPath2101"
       clipPathUnits="userSpaceOnUse"><path
         id="path2099"
         d="M 49,113 H 976 V 960 H 49 Z" /></clipPath><clipPath
       id="clipPath2105"
       clipPathUnits="userSpaceOnUse"><path
         id="path2103"
         d="M 0,0 H 1024 V 1024 H 0 Z" /></clipPath></defs><sodipodi:namedview
     inkscape:current-layer="g2091"
     inkscape:window-maximized="0"
     inkscape:window-y="0"
     inkscape:window-x="0"
     inkscape:cy="682.66663"
     inkscape:cx="682.66663"
     inkscape:zoom="0.62255863"
     showgrid="false"
     id="namedview2085"
     inkscape:window-height="480"
     inkscape:window-width="820"
     inkscape:pageshadow="2"
     inkscape:pageopacity="0"
     guidetolerance="10"
     gridtolerance="10"
     objecttolerance="10"
     borderopacity="1"
     bordercolor="#666666"
     pagecolor="#ffffff" /><g
     transform="matrix(1.3333333,0,0,-1.3333333,0,1365.3333)"
     inkscape:label="Home_Selected"
     inkscape:groupmode="layer"
     id="g2091"><g
       id="g2093" /><g
       id="g2095"><g
         id="g2097" /><g
         id="g2127"><g
           id="g2125"
           clip-path="url(#clipPath2101)"><g
             id="g2107" /><g
             id="g2123"><g
               id="g2121"
               clip-path="url(#clipPath2105)"><path
                 id="path2109"
                 style="fill:#ffffff;fill-opacity:0;fill-rule:nonzero;stroke:none"
                 d="M 97,609.4145 512,911.05 927,609.4145" /><g
                 id="g2113"
                 transform="matrix(1,0,0,-1,0,1024)"><path
                   id="path2111"
                   style="fill:none;stroke:#000000;stroke-width:48;stroke-linecap:round;stroke-linejoin:round;stroke-miterlimit:10;stroke-dasharray:none;stroke-opacity:1"
                   d="M 97,414.5855 512,112.95 927,414.5855" /></g><path
                 id="path2115"
                 style="fill:#000000;fill-opacity:1;fill-rule:nonzero;stroke:none"
                 d="M 512,805.5938 192,573 V 212.1875 C 192,183.9106 214.9105,161 243.1875,161 H 416 V 390.0625 H 608 V 161 H 780.8125 C 809.0894,161.0001 832,183.9105 832,212.1875 V 573 c 0,0 -320,232.5938 -320,232.5938 z" /><g
                 id="g2119"
                 transform="matrix(1,0,0,-1,0,1024)"><path
                   id="path2117"
                   style="fill:none;stroke:#000000;stroke-width:48;stroke-linecap:round;stroke-linejoin:round;stroke-miterlimit:10;stroke-dasharray:none;stroke-opacity:1"
                   d="M 512,218.4062 192,451 V 811.8125 C 192,840.0894 214.9105,863 243.1875,863 H 416 V 633.9375 H 608 V 863 H 780.8125 C 809.0894,862.9999 832,840.0895 832,811.8125 V 451 c 0,0 -320,-232.5938 -320,-232.5938 z" /></g></g></g></g></g></g></g></svg>
