<?xml version="1.0" encoding="UTF-8" standalone="no"?>
<svg
   xmlns:dc="http://purl.org/dc/elements/1.1/"
   xmlns:cc="http://creativecommons.org/ns#"
   xmlns:rdf="http://www.w3.org/1999/02/22-rdf-syntax-ns#"
   xmlns:svg="http://www.w3.org/2000/svg"
   xmlns="http://www.w3.org/2000/svg"
   xmlns:sodipodi="http://sodipodi.sourceforge.net/DTD/sodipodi-0.dtd"
   xmlns:inkscape="http://www.inkscape.org/namespaces/inkscape"
   inkscape:version="1.0 (4035a4fb49, 2020-05-01)"
   sodipodi:docname="Inbox_Selected.svg"
   viewBox="0 0 1365.3333 1365.3333"
   height="1365.3333"
   width="1365.3333"
   xml:space="preserve"
   id="svg3297"
   version="1.1"><metadata
     id="metadata3303"><rdf:RDF><cc:Work
         rdf:about=""><dc:format>image/svg+xml</dc:format><dc:type
           rdf:resource="http://purl.org/dc/dcmitype/StillImage" /><dc:title></dc:title></cc:Work></rdf:RDF></metadata><defs
     id="defs3301"><clipPath
       id="clipPath3315"
       clipPathUnits="userSpaceOnUse"><path
         id="path3313"
         d="M 79,103 H 944 V 943 H 79 Z" /></clipPath><clipPath
       id="clipPath3319"
       clipPathUnits="userSpaceOnUse"><path
         id="path3317"
         d="M 0,0 H 1024 V 1024 H 0 Z" /></clipPath></defs><sodipodi:namedview
     inkscape:current-layer="g3305"
     inkscape:window-maximized="0"
     inkscape:window-y="315"
     inkscape:window-x="923"
     inkscape:cy="682.66663"
     inkscape:cx="682.66663"
     inkscape:zoom="0.62255863"
     showgrid="false"
     id="namedview3299"
     inkscape:window-height="480"
     inkscape:window-width="820"
     inkscape:pageshadow="2"
     inkscape:pageopacity="0"
     guidetolerance="10"
     gridtolerance="10"
     objecttolerance="10"
     borderopacity="1"
     bordercolor="#666666"
     pagecolor="#ffffff" /><g
     transform="matrix(1.3333333,0,0,-1.3333333,0,1365.3333)"
     inkscape:label="Inbox_Selected"
     inkscape:groupmode="layer"
     id="g3305"><g
       id="g3307" /><g
       id="g3309"><g
         id="g3311" /><g
         id="g3351"><g
           id="g3349"
           clip-path="url(#clipPath3315)"><g
             id="g3321" /><g
             id="g3347"><g
               id="g3345"
               clip-path="url(#clipPath3319)"><path
                 id="path3323"
                 style="fill:#000000;fill-opacity:1;fill-rule:nonzero;stroke:none"
                 d="M 128,628 V 247 c 0,-53.0192 42.9807,-96 96,-96 h 576 c 53.0192,0 96,42.9807 96,96 V 628 L 602.3752,419.8915 C 551.5488,383.868 469.2622,384.0355 418.5829,420.2656 418.5829,420.2656 128,628 128,628 Z" /><g
                 id="g3327"
                 transform="matrix(1,0,0,-1,0,1024)"><path
                   id="path3325"
                   style="fill:none;stroke:#000000;stroke-width:48;stroke-linecap:round;stroke-linejoin:round;stroke-miterlimit:10;stroke-dasharray:none;stroke-opacity:1"
                   d="m 128,396 v 381 c 0,53.0192 42.9807,96 96,96 h 576 c 53.0192,0 96,-42.9807 96,-96 V 396 L 602.3752,604.1085 C 551.5488,640.132 469.2622,639.9645 418.5829,603.7344 418.5829,603.7344 128,396 128,396 Z" /></g><g
                 id="g3331"
                 transform="matrix(1,0,0,-1,0,1024)"><path
                   id="path3329"
                   style="fill:none;stroke:#000000;stroke-width:48;stroke-linecap:round;stroke-linejoin:round;stroke-miterlimit:10;stroke-dasharray:none;stroke-opacity:1"
                   d="m 895.623,215.4341 c 0.2495,2.822 0.3769,5.6791 0.3769,8.5659" /></g><path
                 id="path3333"
                 style="fill:#000000;fill-opacity:1;fill-rule:nonzero;stroke:none"
                 d="m 223.7632,894.8231 c -53.0454,0 -96.0625,-42.9807 -96.0625,-96 l 0.4012,-54 322.4736,-222.9883 c 33.9123,-23.4501 88.8912,-23.4448 122.799,0.0116 l 322.3262,222.9767 v 62.5625 c -4.3354,49.0065 -45.4991,87.4375 -95.6563,87.4375 0,0 -576.2812,0 -576.2812,0 z" /><g
                 id="g3337"
                 transform="matrix(1,0,0,-1,0,1024)"><path
                   id="path3335"
                   style="fill:none;stroke:#000000;stroke-width:48;stroke-linecap:round;stroke-linejoin:round;stroke-miterlimit:10;stroke-dasharray:none;stroke-opacity:1"
                   d="m 223.7632,129.1769 c -53.0454,0 -96.0625,42.9807 -96.0625,96 l 0.4012,54 322.4736,222.9883 c 33.9123,23.4501 88.8912,23.4448 122.799,-0.0116 L 895.7007,279.1769 v -62.5625 c -4.3354,-49.0065 -45.4991,-87.4375 -95.6563,-87.4375 0,0 -576.2812,0 -576.2812,0 z" /></g><path
                 id="path3339"
                 style="fill:#000000;fill-opacity:1;fill-rule:nonzero;stroke:none"
                 d="m 896,800 v -52 c 0,0 0,52 0,52 z" /><g
                 id="g3343"
                 transform="matrix(1,0,0,-1,0,1024)"><path
                   id="path3341"
                   style="fill:none;stroke:#000000;stroke-width:48;stroke-linecap:round;stroke-linejoin:round;stroke-miterlimit:10;stroke-dasharray:none;stroke-opacity:1"
                   d="m 896,224 v 52 c 0,0 0,-52 0,-52 z" /></g></g></g></g></g></g></g></svg>
