<?xml version="1.0" encoding="UTF-8" standalone="no"?>
<svg
   xmlns:dc="http://purl.org/dc/elements/1.1/"
   xmlns:cc="http://creativecommons.org/ns#"
   xmlns:rdf="http://www.w3.org/1999/02/22-rdf-syntax-ns#"
   xmlns:svg="http://www.w3.org/2000/svg"
   xmlns="http://www.w3.org/2000/svg"
   xmlns:sodipodi="http://sodipodi.sourceforge.net/DTD/sodipodi-0.dtd"
   xmlns:inkscape="http://www.inkscape.org/namespaces/inkscape"
   inkscape:version="1.0 (4035a4fb49, 2020-05-01)"
   sodipodi:docname="Options.svg"
   viewBox="0 0 1365.3333 1365.3333"
   height="1365.3333"
   width="1365.3333"
   xml:space="preserve"
   id="svg4533"
   version="1.1"><metadata
     id="metadata4539"><rdf:RDF><cc:Work
         rdf:about=""><dc:format>image/svg+xml</dc:format><dc:type
           rdf:resource="http://purl.org/dc/dcmitype/StillImage" /><dc:title></dc:title></cc:Work></rdf:RDF></metadata><defs
     id="defs4537"><clipPath
       id="clipPath4551"
       clipPathUnits="userSpaceOnUse"><path
         id="path4549"
         d="M 63,383 H 961 V 641 H 63 Z" /></clipPath><clipPath
       id="clipPath4555"
       clipPathUnits="userSpaceOnUse"><path
         id="path4553"
         d="M 0,0 H 1024 V 1024 H 0 Z" /></clipPath></defs><sodipodi:namedview
     inkscape:current-layer="g4541"
     inkscape:window-maximized="0"
     inkscape:window-y="362"
     inkscape:window-x="1000"
     inkscape:cy="682.66663"
     inkscape:cx="682.66663"
     inkscape:zoom="0.62255863"
     showgrid="false"
     id="namedview4535"
     inkscape:window-height="480"
     inkscape:window-width="820"
     inkscape:pageshadow="2"
     inkscape:pageopacity="0"
     guidetolerance="10"
     gridtolerance="10"
     objecttolerance="10"
     borderopacity="1"
     bordercolor="#666666"
     pagecolor="#ffffff" /><g
     transform="matrix(1.3333333,0,0,-1.3333333,0,1365.3333)"
     inkscape:label="Options"
     inkscape:groupmode="layer"
     id="g4541"><g
       id="g4543" /><g
       id="g4545"><g
         id="g4547" /><g
         id="g4583"><g
           id="g4581"
           clip-path="url(#clipPath4551)"><g
             id="g4557" /><g
             id="g4579"><g
               id="g4577"
               clip-path="url(#clipPath4555)"><path
                 id="path4559"
                 style="fill:#000000;fill-opacity:1;fill-rule:nonzero;stroke:none"
                 d="m 384,512 c 0,70.6925 57.3075,128 128,128 70.6924,0 128,-57.3075 128,-128 0,-70.6924 -57.3076,-128 -128,-128 -70.6925,0 -128,57.3076 -128,128 z" /><g
                 id="g4563"
                 transform="matrix(1,0,0,-1,0,1024)"><path
                   id="path4561"
                   style="fill:none;stroke:#000000;stroke-width:1;stroke-linecap:butt;stroke-linejoin:round;stroke-miterlimit:10;stroke-dasharray:none;stroke-opacity:1"
                   d="m 384,512 c 0,-70.6925 57.3075,-128 128,-128 70.6924,0 128,57.3075 128,128 0,70.6924 -57.3076,128 -128,128 -70.6925,0 -128,-57.3076 -128,-128 z" /></g><path
                 id="path4565"
                 style="fill:#000000;fill-opacity:1;fill-rule:nonzero;stroke:none"
                 d="m 64,512 c 0,70.6925 57.3075,128 128,128 70.6924,0 128,-57.3075 128,-128 0,-70.6924 -57.3076,-128 -128,-128 -70.6925,0 -128,57.3076 -128,128 z" /><g
                 id="g4569"
                 transform="matrix(1,0,0,-1,0,1024)"><path
                   id="path4567"
                   style="fill:none;stroke:#000000;stroke-width:1;stroke-linecap:butt;stroke-linejoin:round;stroke-miterlimit:10;stroke-dasharray:none;stroke-opacity:1"
                   d="m 64,512 c 0,-70.6925 57.3075,-128 128,-128 70.6924,0 128,57.3075 128,128 0,70.6924 -57.3076,128 -128,128 C 121.3075,640 64,582.6924 64,512 Z" /></g><path
                 id="path4571"
                 style="fill:#000000;fill-opacity:1;fill-rule:nonzero;stroke:none"
                 d="m 704,512 c 0,70.6925 57.3075,128 128,128 70.6924,0 128,-57.3075 128,-128 0,-70.6924 -57.3076,-128 -128,-128 -70.6925,0 -128,57.3076 -128,128 z" /><g
                 id="g4575"
                 transform="matrix(1,0,0,-1,0,1024)"><path
                   id="path4573"
                   style="fill:none;stroke:#000000;stroke-width:1;stroke-linecap:butt;stroke-linejoin:round;stroke-miterlimit:10;stroke-dasharray:none;stroke-opacity:1"
                   d="m 704,512 c 0,-70.6925 57.3075,-128 128,-128 70.6924,0 128,57.3075 128,128 0,70.6924 -57.3076,128 -128,128 -70.6925,0 -128,-57.3076 -128,-128 z" /></g></g></g></g></g></g></g></svg>
