<?xml version="1.0" encoding="UTF-8" standalone="no"?>
<svg
   xmlns:dc="http://purl.org/dc/elements/1.1/"
   xmlns:cc="http://creativecommons.org/ns#"
   xmlns:rdf="http://www.w3.org/1999/02/22-rdf-syntax-ns#"
   xmlns:svg="http://www.w3.org/2000/svg"
   xmlns="http://www.w3.org/2000/svg"
   xmlns:sodipodi="http://sodipodi.sourceforge.net/DTD/sodipodi-0.dtd"
   xmlns:inkscape="http://www.inkscape.org/namespaces/inkscape"
   inkscape:version="1.0 (4035a4fb49, 2020-05-01)"
   sodipodi:docname="Reply.svg"
   viewBox="0 0 1365.3333 1365.3333"
   height="1365.3333"
   width="1365.3333"
   xml:space="preserve"
   id="svg5146"
   version="1.1"><metadata
     id="metadata5152"><rdf:RDF><cc:Work
         rdf:about=""><dc:format>image/svg+xml</dc:format><dc:type
           rdf:resource="http://purl.org/dc/dcmitype/StillImage" /><dc:title></dc:title></cc:Work></rdf:RDF></metadata><defs
     id="defs5150"><clipPath
       id="clipPath5164"
       clipPathUnits="userSpaceOnUse"><path
         id="path5162"
         d="M 144,103 H 881 V 871 H 144 Z" /></clipPath><clipPath
       id="clipPath5168"
       clipPathUnits="userSpaceOnUse"><path
         id="path5166"
         d="M 0,0 H 1024 V 1024 H 0 Z" /></clipPath></defs><sodipodi:namedview
     inkscape:current-layer="g5154"
     inkscape:window-maximized="0"
     inkscape:window-y="338"
     inkscape:window-x="995"
     inkscape:cy="682.66663"
     inkscape:cx="682.66663"
     inkscape:zoom="0.62255863"
     showgrid="false"
     id="namedview5148"
     inkscape:window-height="480"
     inkscape:window-width="820"
     inkscape:pageshadow="2"
     inkscape:pageopacity="0"
     guidetolerance="10"
     gridtolerance="10"
     objecttolerance="10"
     borderopacity="1"
     bordercolor="#666666"
     pagecolor="#ffffff" /><g
     transform="matrix(1.3333333,0,0,-1.3333333,0,1365.3333)"
     inkscape:label="Reply"
     inkscape:groupmode="layer"
     id="g5154"><g
       id="g5156" /><g
       id="g5158"><g
         id="g5160" /><g
         id="g5184"><g
           id="g5182"
           clip-path="url(#clipPath5164)"><g
             id="g5170" /><g
             id="g5180"><g
               id="g5178"
               clip-path="url(#clipPath5168)"><path
                 id="path5172"
                 style="fill:#ffffff;fill-opacity:0;fill-rule:nonzero;stroke:none"
                 d="m 424.7188,822.6562 c -128.1301,10e-5 -232,-103.8699 -232,-232 v -48 c 0,-128.13 103.8699,-232 232,-232 h 33.1874 v -158.75 l 293.5313,214.4376 c 49.7397,42.5512 81.2813,105.7232 81.2813,176.3124 v 48 c 0,128.1301 -103.87,232 -232,232 0,0 -176,0 -176,0 z" /><g
                 id="g5176"
                 transform="matrix(1,0,0,-1,0,1024)"><path
                   id="path5174"
                   style="fill:none;stroke:#000000;stroke-width:48;stroke-linecap:butt;stroke-linejoin:round;stroke-miterlimit:10;stroke-dasharray:none;stroke-opacity:1"
                   d="m 424.7188,201.3438 c -128.1301,-10e-5 -232,103.8699 -232,232 v 48 c 0,128.13 103.8699,232 232,232 h 33.1874 v 158.75 L 751.4375,657.6562 C 801.1772,615.105 832.7188,551.933 832.7188,481.3438 v -48 c 0,-128.1301 -103.87,-232 -232,-232 0,0 -176,0 -176,0 z" /></g></g></g></g></g></g></g></svg>
