<?xml version="1.0" encoding="UTF-8" standalone="no"?>
<svg
   xmlns:dc="http://purl.org/dc/elements/1.1/"
   xmlns:cc="http://creativecommons.org/ns#"
   xmlns:rdf="http://www.w3.org/1999/02/22-rdf-syntax-ns#"
   xmlns:svg="http://www.w3.org/2000/svg"
   xmlns="http://www.w3.org/2000/svg"
   xmlns:sodipodi="http://sodipodi.sourceforge.net/DTD/sodipodi-0.dtd"
   xmlns:inkscape="http://www.inkscape.org/namespaces/inkscape"
   inkscape:version="1.0 (4035a4fb49, 2020-05-01)"
   sodipodi:docname="Settings.svg"
   viewBox="0 0 1365.3333 1365.3333"
   height="1365.3333"
   width="1365.3333"
   xml:space="preserve"
   id="svg7564"
   version="1.1"><metadata
     id="metadata7570"><rdf:RDF><cc:Work
         rdf:about=""><dc:format>image/svg+xml</dc:format><dc:type
           rdf:resource="http://purl.org/dc/dcmitype/StillImage" /><dc:title></dc:title></cc:Work></rdf:RDF></metadata><defs
     id="defs7568"><clipPath
       id="clipPath7582"
       clipPathUnits="userSpaceOnUse"><path
         id="path7580"
         d="M 63,64 H 961 V 961 H 63 Z" /></clipPath><clipPath
       id="clipPath7586"
       clipPathUnits="userSpaceOnUse"><path
         id="path7584"
         d="M 0,0 H 1024 V 1024 H 0 Z" /></clipPath></defs><sodipodi:namedview
     inkscape:current-layer="g7572"
     inkscape:window-maximized="0"
     inkscape:window-y="329"
     inkscape:window-x="976"
     inkscape:cy="682.66663"
     inkscape:cx="682.66663"
     inkscape:zoom="0.62255863"
     showgrid="false"
     id="namedview7566"
     inkscape:window-height="480"
     inkscape:window-width="820"
     inkscape:pageshadow="2"
     inkscape:pageopacity="0"
     guidetolerance="10"
     gridtolerance="10"
     objecttolerance="10"
     borderopacity="1"
     bordercolor="#666666"
     pagecolor="#ffffff" /><g
     transform="matrix(1.3333333,0,0,-1.3333333,0,1365.3333)"
     inkscape:label="Settings"
     inkscape:groupmode="layer"
     id="g7572"><g
       id="g7574" /><g
       id="g7576"><g
         id="g7578" /><g
         id="g7598"><g
           id="g7596"
           clip-path="url(#clipPath7582)"><g
             id="g7588" /><g
             id="g7594"><g
               id="g7592"
               clip-path="url(#clipPath7586)"><path
                 id="path7590"
                 style="fill:#000000;fill-opacity:1;fill-rule:nonzero;stroke:none"
                 d="m 480,960 c -17.6732,0 -32,-14.3269 -32,-32 0,0 -1.8112,-10.698 -8,-55.6875 -36.3828,-28.9922 -83.3047,-47.0547 -129.5312,-52.2813 -35.6147,23.6537 -47.375,31.3751 -47.375,31.375 -12.4969,12.4968 -32.7533,12.4968 -45.25,0 l -45.25,-45.25 c -12.4968,-12.4967 -12.4968,-32.7532 0,-45.25 0,0 11.0618,-15.1576 31.375,-47.375 C 198.7422,667.3047 180.6797,620.3828 151.6875,584 112.116,577.2373 95.99999,576 96,576 78.32689,576 63.99998,561.6732 64,544 v -64 c 1e-5,-17.6731 14.32689,-32 32,-32 0,0 12.7232,-1.2893 55.6875,-8 28.9922,-36.3828 47.0547,-83.3047 52.2813,-129.5312 -24.3601,-36.1149 -31.3751,-47.375 -31.375,-47.375 -12.4968,-12.4968 -12.4968,-32.7531 0,-45.25 l 45.25,-45.25 c 12.4968,-12.4969 32.7532,-12.497 45.25,0 0,0 11.4387,8.5381 47.375,31.375 46.2265,-5.2266 93.1484,-23.2891 129.5312,-52.2813 5.9087,-40.3671 8,-55.68758 8,-55.6875 0,-17.6731 14.3269,-32 32,-32 h 64 c 17.6731,7e-5 32,14.32694 32,32 0,0 2.2666,14.1016 8,55.6875 36.3828,28.9922 83.3047,47.0547 129.5312,52.2813 36.2119,-24.4022 47.3751,-31.3751 47.375,-31.375 12.4969,-12.4969 32.7531,-12.497 45.25,0 l 45.25,45.25 c 12.4969,12.4967 12.497,32.753 0,45.25 0,0 -5.2365,9.4986 -31.375,47.375 5.2266,46.2265 23.2891,93.1484 52.2813,129.5312 43.4548,6.2667 55.6876,8 55.6875,8 17.6731,0 32,14.3269 32,32 v 64 c -10e-5,17.6732 -14.3269,32 -32,32 0,0 -15.1346,2.5066 -55.6875,8 -28.9922,36.3828 -47.0547,83.3047 -52.2813,129.5312 26.0318,38.6637 31.375,47.3751 31.375,47.375 12.4969,12.4968 12.497,32.7533 0,45.25 l -45.25,45.25 c -12.4968,12.4968 -32.753,12.4968 -45.25,0 0,0 -9.687,-6.4694 -47.375,-31.375 C 667.3047,825.2578 620.3828,843.3203 584,872.3125 577.4689,919.1692 576,928 576,928 c 0,17.6731 -14.3269,32 -32,32 0,0 -64,0 -64,0 z M 512,768 C 653.3849,768 768,653.3849 768,512 768,370.6151 653.3849,256 512,256 370.6151,256 256,370.6151 256,512 c 0,141.3849 114.6151,256 256,256 z" /></g></g></g></g></g></g></svg>
