<?xml version="1.0" encoding="UTF-8" standalone="no"?>
<svg
   xmlns:dc="http://purl.org/dc/elements/1.1/"
   xmlns:cc="http://creativecommons.org/ns#"
   xmlns:rdf="http://www.w3.org/1999/02/22-rdf-syntax-ns#"
   xmlns:svg="http://www.w3.org/2000/svg"
   xmlns="http://www.w3.org/2000/svg"
   xmlns:sodipodi="http://sodipodi.sourceforge.net/DTD/sodipodi-0.dtd"
   xmlns:inkscape="http://www.inkscape.org/namespaces/inkscape"
   inkscape:version="1.0 (4035a4fb49, 2020-05-01)"
   sodipodi:docname="Share.svg"
   viewBox="0 0 1365.3333 1365.3333"
   height="1365.3333"
   width="1365.3333"
   xml:space="preserve"
   id="svg8161"
   version="1.1"><metadata
     id="metadata8167"><rdf:RDF><cc:Work
         rdf:about=""><dc:format>image/svg+xml</dc:format><dc:type
           rdf:resource="http://purl.org/dc/dcmitype/StillImage" /><dc:title></dc:title></cc:Work></rdf:RDF></metadata><defs
     id="defs8165"><clipPath
       id="clipPath8179"
       clipPathUnits="userSpaceOnUse"><path
         id="path8177"
         d="m 148,149 h 737 v 875 H 148 Z" /></clipPath><clipPath
       id="clipPath8183"
       clipPathUnits="userSpaceOnUse"><path
         id="path8181"
         d="M 0,0 H 1024 V 1024 H 0 Z" /></clipPath></defs><sodipodi:namedview
     inkscape:current-layer="g8169"
     inkscape:window-maximized="0"
     inkscape:window-y="309"
     inkscape:window-x="954"
     inkscape:cy="682.66663"
     inkscape:cx="682.66663"
     inkscape:zoom="0.62255863"
     showgrid="false"
     id="namedview8163"
     inkscape:window-height="480"
     inkscape:window-width="820"
     inkscape:pageshadow="2"
     inkscape:pageopacity="0"
     guidetolerance="10"
     gridtolerance="10"
     objecttolerance="10"
     borderopacity="1"
     bordercolor="#666666"
     pagecolor="#ffffff" /><g
     transform="matrix(1.3333333,0,0,-1.3333333,0,1365.3333)"
     inkscape:label="Share"
     inkscape:groupmode="layer"
     id="g8169"><g
       id="g8171" /><g
       id="g8173"><g
         id="g8175" /><g
         id="g8209"><g
           id="g8207"
           clip-path="url(#clipPath8179)"><g
             id="g8185" /><g
             id="g8205"><g
               id="g8203"
               clip-path="url(#clipPath8183)"><path
                 id="path8187"
                 style="fill:#ffffff;fill-opacity:0;fill-rule:nonzero;stroke:none"
                 d="M 414,724 H 302.6563 C 243.7459,723.9999 196,676.2541 196,617.3438 V 303.7496 c 0,-58.9103 47.7459,-106.6563 106.6562,-106.6563 H 729.3438 C 788.254,197.0933 836,244.8392 836,303.7496 V 617.3438 C 836,676.2542 788.2541,724 729.3438,724 H 610" /><g
                 id="g8191"
                 transform="matrix(1,0,0,-1,0,1024)"><path
                   id="path8189"
                   style="fill:none;stroke:#000000;stroke-width:48;stroke-linecap:round;stroke-linejoin:round;stroke-miterlimit:10;stroke-dasharray:none;stroke-opacity:1"
                   d="M 414,300 H 302.6563 C 243.7459,300.0001 196,347.7459 196,406.6562 v 313.5942 c 0,58.9103 47.7459,106.6563 106.6562,106.6563 H 729.3438 C 788.254,826.9067 836,779.1608 836,720.2504 V 406.6562 C 836,347.7458 788.2541,300 729.3438,300 H 610" /></g><path
                 id="path8193"
                 style="fill:#ffffff;fill-opacity:0;fill-rule:nonzero;stroke:none"
                 d="M 373.41,837.4071 512.0029,976 650.5959,837.4071" /><g
                 id="g8197"
                 transform="matrix(1,0,0,-1,0,1024)"><path
                   id="path8195"
                   style="fill:none;stroke:#000000;stroke-width:48;stroke-linecap:round;stroke-linejoin:round;stroke-miterlimit:10;stroke-dasharray:none;stroke-opacity:1"
                   d="M 373.41,186.5929 512.0029,48 650.5959,186.5929" /></g><g
                 id="g8201"
                 transform="matrix(1,0,0,-1,0,1024)"><path
                   id="path8199"
                   style="fill:none;stroke:#000000;stroke-width:48;stroke-linecap:round;stroke-linejoin:round;stroke-miterlimit:10;stroke-dasharray:none;stroke-opacity:1"
                   d="M 512,48 V 560" /></g></g></g></g></g></g></g></svg>
